# xmcd
#
# Track frame offsets:
#	150
#	24641
#	41900
#	55570
#	72120
#	87524
#	106896
#	121980
#	132680
#	146298
#	164712
#	184984
#	206299
#
# Disc length: 2897 seconds
#
# Revision: 1
# Processed by: cddbd v1.5.2PL0 Copyright (c) Steve Scherf et al.
# Submitted via: audiograbber 1.83.01
#
DISCID=bd0b4f0d
DTITLE=Delhusa Gjon - Szerenád
DYEAR=1999
DGENRE=Pop
TTITLE0=Szeretlek én (Besame mucho)
TTITLE1=Pedro kocsmája (Historia de un Amor)
TTITLE2=Bamba, bamba (La Bamba)
TTITLE3=Quantanamera
TTITLE4=Fekete Orfeusz (Manha de Carneval)
TTITLE5=El Condor Pasa
TTITLE6=Ajjajjajjajj, igy szép az élet (Cielito Lindo)
TTITLE7=Egy szó mint száz
TTITLE8=Rám találhatnál
TTITLE9=Nincs más (Perfidia)
TTITLE10=Go, Go, Gol! (La Copa De La Vida)
TTITLE11=Fortuna
TTITLE12=Csupa könny a szobám (You belong to my heart)
EXTD=
EXTT0=
EXTT1=
EXTT2=
EXTT3=
EXTT4=
EXTT5=
EXTT6=
EXTT7=
EXTT8=
EXTT9=
EXTT10=
EXTT11=
EXTT12=
PLAYORDER=
